Coordinates
version=1
nRows=28
nColumns=38
inDegrees=no

Units are S.I. units (second, meters, Newtons, ...)
If the header above contains a line with 'inDegrees', this indicates whether rotational values are in degrees (yes) or radians (no).

endheader
time	pelvis_tilt	pelvis_list	pelvis_rotation	pelvis_tx	pelvis_ty	pelvis_tz	hip_flexion_r	hip_adduction_r	hip_rotation_r	knee_angle_r	ankle_angle_r	subtalar_angle_r	mtp_angle_r	hip_flexion_l	hip_adduction_l	hip_rotation_l	knee_angle_l	ankle_angle_l	subtalar_angle_l	mtp_angle_l	lumbar_extension	lumbar_bending	lumbar_rotation	arm_flex_r	arm_add_r	arm_rot_r	elbow_flex_r	pro_sup_r	wrist_flex_r	wrist_dev_r	arm_flex_l	arm_add_l	arm_rot_l	elbow_flex_l	pro_sup_l	wrist_flex_l	wrist_dev_l
68	-0.0336106	1.45382	1.62911	0.6757	0.830244	0.994742	0.441739	-0.141117	-0.237843	0.828522	-0.0865054	0	0	0.361879	-0.131303	-0.332213	0.696429	-0.159231	0	0	-0.0229405	0.137881	-0.259491	0.361838	-0.23509	0.38006	0	1.42699	0	0	-0.240449	-0.29593	0.0803837	0.817512	1.24401	0	0
68.01	-0.08981	1.45211	1.68501	0.675697	0.829655	0.990841	0.443107	-0.15592	-0.23024	0.822134	-0.0802748	0	0	0.37148	-0.126055	-0.329988	0.716375	-0.149207	0	0	-0.0254388	0.134033	-0.259183	0.365543	-0.235719	0.386693	0	1.42216	0	0	-0.239755	-0.297664	0.0803236	0.822909	1.24665	0	0
68.02	-0.0874762	1.44819	1.67831	0.675568	0.828406	0.987733	0.468011	-0.150857	-0.228299	0.866089	-0.069154	0	0	0.384169	-0.127816	-0.325768	0.734643	-0.138514	0	0	-0.0296863	0.140226	-0.251766	0.371778	-0.241134	0.393925	0	1.4143	0	0	-0.228986	-0.29387	0.0833941	0.81818	1.25081	0	0
68.03	-0.111346	1.44525	1.70098	0.675347	0.827489	0.984099	0.481016	-0.156595	-0.225694	0.886175	-0.0600003	0	0	0.39563	-0.125364	-0.320416	0.753552	-0.126683	0	0	-0.0328972	0.141735	-0.249671	0.377373	-0.244232	0.402902	0	1.40524	0	0	-0.223709	-0.292343	0.0835173	0.818422	1.25411	0	0
68.04	-0.134003	1.44215	1.72246	0.675105	0.826577	0.980403	0.494234	-0.162187	-0.222581	0.905345	-0.0511687	0	0	0.407216	-0.122403	-0.314317	0.772053	-0.114505	0	0	-0.0359194	0.143509	-0.24786	0.383044	-0.247491	0.413312	0	1.39614	0	0	-0.218395	-0.290477	0.0829712	0.818203	1.25867	0	0
68.05	-0.156268	1.43909	1.74373	0.674846	0.825669	0.976657	0.507429	-0.167937	-0.219487	0.923736	-0.0423164	0	0	0.418619	-0.118927	-0.306979	0.790343	-0.101166	0	0	-0.0391143	0.145343	-0.246709	0.389052	-0.250564	0.425332	0	1.38666	0	0	-0.213449	-0.288838	0.0819724	0.818072	1.26598	0	0
68.06	-0.208835	1.43713	1.79847	0.674603	0.825324	0.972382	0.503718	-0.188618	-0.219485	0.911454	-0.0357696	0	0	0.427456	-0.111184	-0.300756	0.809363	-0.0908279	0	0	-0.0397444	0.141302	-0.249387	0.391699	-0.251456	0.433995	0	1.37911	0	0	-0.213184	-0.290092	0.080703	0.820546	1.27341	0	0
68.07	-0.193515	1.43138	1.77745	0.674393	0.823905	0.969054	0.534915	-0.178274	-0.212922	0.960315	-0.0272161	0	0	0.442535	-0.112628	-0.293361	0.826808	-0.0804445	0	0	-0.0416789	0.149788	-0.240154	0.397954	-0.258643	0.444294	0	1.36651	0	0	-0.200277	-0.283728	0.0822003	0.810407	1.28396	0	0
68.08	-0.212554	1.42904	1.79542	0.674163	0.823144	0.965372	0.546019	-0.182994	-0.208845	0.978574	-0.0189692	0	0	0.452545	-0.109296	-0.286429	0.844894	-0.0693924	0	0	-0.0443808	0.152352	-0.237934	0.40267	-0.262665	0.457134	0	1.35215	0	0	-0.193448	-0.281331	0.0821437	0.805303	1.29352	0	0
68.09	-0.233713	1.42763	1.81564	0.673966	0.822477	0.961764	0.556171	-0.187547	-0.203861	0.996262	-0.0113867	0	0	0.461228	-0.105888	-0.280178	0.862798	-0.0585275	0	0	-0.0477715	0.154651	-0.235823	0.406939	-0.266599	0.471604	0	1.33749	0	0	-0.186147	-0.2794	0.082809	0.798933	1.30292	0	0
68.1	-0.257424	1.42661	1.8383	0.673769	0.821922	0.958218	0.565816	-0.192182	-0.198484	1.01323	-0.00406544	0	0	0.469013	-0.102355	-0.275113	0.880543	-0.0480488	0	0	-0.0513789	0.156458	-0.233452	0.410564	-0.27059	0.487482	0	1.32235	0	0	-0.178416	-0.277768	0.084222	0.791202	1.31185	0	0
68.11	-0.284382	1.4262	1.86433	0.673526	0.821459	0.954751	0.5741	-0.197019	-0.192849	1.03065	0.00398551	0	0	0.475662	-0.098595	-0.270877	0.898149	-0.0380647	0	0	-0.0555606	0.157709	-0.230944	0.413532	-0.274547	0.503722	0	1.30496	0	0	-0.170257	-0.276196	0.0858361	0.7825	1.31936	0	0
68.12	-0.312134	1.42585	1.89163	0.673246	0.821018	0.951304	0.582123	-0.202027	-0.186859	1.04758	0.0118355	0	0	0.482126	-0.0949233	-0.267326	0.915858	-0.0286247	0	0	-0.0596313	0.15875	-0.229037	0.416184	-0.278356	0.520358	0	1.28439	0	0	-0.16208	-0.274933	0.088025	0.773328	1.32491	0	0
68.13	-0.33817	1.42538	1.9174	0.67295	0.820608	0.94785	0.590232	-0.206724	-0.180704	1.06387	0.0194629	0	0	0.488822	-0.0913384	-0.264202	0.933431	-0.0195006	0	0	-0.0633565	0.159993	-0.22773	0.418617	-0.282093	0.538548	0	1.26154	0	0	-0.154247	-0.273723	0.0905314	0.763638	1.32814	0	0
68.14	-0.360969	1.42496	1.94021	0.672653	0.820227	0.944398	0.59771	-0.211049	-0.175627	1.0807	0.0269045	0	0	0.495707	-0.0880103	-0.260535	0.951097	-0.0109778	0	0	-0.0668785	0.1616	-0.22678	0.420588	-0.285934	0.559617	0	1.23777	0	0	-0.146798	-0.27266	0.093227	0.754286	1.32957	0	0
68.15	-0.383005	1.42457	1.96242	0.672311	0.819861	0.940973	0.605212	-0.215539	-0.170965	1.09699	0.032213	0	0	0.5024	-0.0848512	-0.257326	0.968548	-0.00429504	0	0	-0.0708072	0.16334	-0.226037	0.422272	-0.290152	0.583643	0	1.21203	0	0	-0.139926	-0.271908	0.0959532	0.746412	1.3291	0	0
68.16	-0.402425	1.4235	1.98204	0.671869	0.819573	0.937507	0.613591	-0.220085	-0.16609	1.11228	0.0375298	0	0	0.509427	-0.0818783	-0.25489	0.985555	0.00309733	0	0	-0.0749183	0.164939	-0.224383	0.427461	-0.292361	0.555388	0	1.24391	0	0	-0.133579	-0.269736	0.0942927	0.740183	1.33165	0	0
68.17	-0.422605	1.42215	2.00258	0.671459	0.819384	0.934051	0.621334	-0.224696	-0.161262	1.12756	0.043516	0	0	0.516051	-0.0789551	-0.253327	1.00177	0.00990331	0	0	-0.0784287	0.16611	-0.223344	0.43123	-0.295055	0.538203	0	1.26251	0	0	-0.128229	-0.268067	0.0932304	0.734512	1.3326	0	0
68.18	-0.443215	1.41997	2.02373	0.671098	0.81928	0.930523	0.629143	-0.229818	-0.156926	1.14305	0.0515097	0	0	0.523143	-0.0753248	-0.251382	1.0177	0.0178101	0	0	-0.0804961	0.166555	-0.222822	0.434096	-0.297459	0.522927	0	1.27981	0	0	-0.124063	-0.266793	0.0922008	0.729568	1.33297	0	0
68.19	-0.463029	1.4174	2.0442	0.670714	0.819172	0.926933	0.637754	-0.235333	-0.152546	1.15773	0.0594062	0	0	0.530548	-0.071216	-0.249375	1.03332	0.0261291	0	0	-0.0820059	0.166789	-0.22259	0.436747	-0.299792	0.509246	0	1.2959	0	0	-0.120697	-0.265969	0.0917114	0.72587	1.33278	0	0
68.2	-0.481344	1.41462	2.06271	0.670405	0.819063	0.923333	0.646672	-0.240366	-0.147764	1.17228	0.0665015	0	0	0.538162	-0.0672844	-0.247857	1.04869	0.0340241	0	0	-0.0831909	0.166919	-0.22202	0.439171	-0.302058	0.498036	0	1.30739	0	0	-0.117905	-0.265601	0.0918174	0.723093	1.33245	0	0
68.21	-0.499394	1.41173	2.08072	0.670139	0.819003	0.919742	0.655321	-0.245022	-0.142627	1.18675	0.0740586	0	0	0.545644	-0.0635591	-0.246684	1.06408	0.0420507	0	0	-0.0843735	0.166803	-0.221159	0.441301	-0.304366	0.487936	0	1.3182	0	0	-0.115558	-0.265634	0.0923277	0.721229	1.33222	0	0
68.22	-0.515765	1.4088	2.09652	0.669898	0.819025	0.916176	0.664166	-0.249108	-0.13713	1.20118	0.0815984	0	0	0.552922	-0.0607702	-0.246823	1.07942	0.0497686	0	0	-0.085467	0.166757	-0.219998	0.443567	-0.306866	0.478754	0	1.32825	0	0	-0.113712	-0.265858	0.0934601	0.720055	1.3323	0	0
68.23	-0.530679	1.40658	2.1105	0.669686	0.819053	0.912725	0.672589	-0.252476	-0.131764	1.21533	0.0871499	0	0	0.559417	-0.0588206	-0.247277	1.09433	0.0556353	0	0	-0.0871351	0.167233	-0.218873	0.446097	-0.309345	0.472667	0	1.33483	0	0	-0.112081	-0.266117	0.0949273	0.71921	1.33273	0	0
68.24	-0.543673	1.40462	2.12237	0.669505	0.819094	0.909333	0.680753	-0.255268	-0.126688	1.22977	0.0930841	0	0	0.56587	-0.0573101	-0.247508	1.10934	0.0618881	0	0	-0.0888505	0.168053	-0.217721	0.448748	-0.311948	0.467414	0	1.34122	0	0	-0.110526	-0.266444	0.0969254	0.718425	1.33365	0	0
68.25	-0.556199	1.40319	2.13392	0.66933	0.819143	0.906036	0.688044	-0.257696	-0.121243	1.24333	0.0990943	0	0	0.57172	-0.0561397	-0.24748	1.12412	0.0680369	0	0	-0.0909339	0.169197	-0.21669	0.451388	-0.314487	0.462564	0	1.34716	0	0	-0.108815	-0.266802	0.0995497	0.71744	1.33501	0	0
68.26	-0.568276	1.40206	2.14507	0.669162	0.819239	0.902798	0.69488	-0.259836	-0.115779	1.25637	0.104563	0	0	0.577065	-0.0552195	-0.247463	1.13858	0.0737404	0	0	-0.0931578	0.17049	-0.215828	0.453997	-0.316959	0.458341	0	1.35176	0	0	-0.107333	-0.267039	0.102227	0.71663	1.33661	0	0
68.27	-0.57948	1.40082	2.15531	0.668982	0.819388	0.899572	0.701782	-0.261955	-0.11035	1.26955	0.110083	0	0	0.582433	-0.0543382	-0.247828	1.1529	0.0797701	0	0	-0.0950597	0.171838	-0.215168	0.456668	-0.319642	0.454318	0	1.35588	0	0	-0.106121	-0.267229	0.105298	0.715826	1.33864	0	0
